<?xml version="1.0" encoding="UTF-8"?>
<svg id="Layer_1" data-name="Layer 1" xmlns="http://www.w3.org/2000/svg" viewBox="0 0 523.7 608.83">
  <defs>
    <style>
      .cls-1 {
        fill: #020202;
      }
    </style>
  </defs>
  <path id="path2" class="cls-1" d="M0,0v608.83l58.26-58.26v-125.74h96.85v96.02l29.18,29.18,29.13-29.18v-96.02h96.85v96.02l29.13,29.18,29.13-29.18v-96.02h96.9v125.74l58.26,58.26V0H0ZM155.11,366.42H58.26v-124.95h96.85v124.95ZM155.11,183.16H58.26V58.16h96.85v125ZM310.28,366.42h-96.85v-124.95h96.85v124.95ZM310.28,183.16h-96.85V58.16h96.85v125ZM465.44,366.42h-96.9v-124.95h96.9v124.95ZM465.44,183.16h-96.9V58.16h96.9v125Z"/>
</svg>