<?xml version="1.0" encoding="UTF-8"?>
<svg id="Layer_1" data-name="Layer 1" xmlns="http://www.w3.org/2000/svg" viewBox="0 0 834 201.13">
  <path id="path2" d="M765.67,13.69V1.6h-47.03v85.23h12.86v-36.57h27.7v-12.09h-27.7V13.69h34.17ZM707.82,44.21C707.82,19.79,688.02,0,663.6,0s-44.21,19.79-44.21,44.21c.26,24.42,20.26,44.01,44.68,43.75,24.06-.25,43.5-19.69,43.75-43.75M694.95,44.21c.31,17.32-13.48,31.6-30.79,31.91-17.32.31-31.6-13.48-31.91-30.79,0-.37,0-.74,0-1.11.3-17.32,14.59-31.11,31.9-30.8,16.88.3,30.5,13.91,30.8,30.79M576.96,54.33l29.98-52.73h-14.85l-21.56,38.08-21.55-38.08h-66.42v12.09h22.24v73.14h12.86V13.69h22.23v-1.95l24.21,42.59v32.5h12.86v-32.5ZM459.54,86.83h12.86V1.6h-12.86v85.23ZM407.33,22.91c0-7.39,5.35-11.85,12.18-11.85,5.82,0,9.88,2.98,13.24,8.8l9.84-6.24C437.87,4.97,429.55,0,419.73,0,405.58,0,394.92,9.7,394.92,22.58c0,25.97,38.42,22.02,38.42,39.73,0,8.01-6.94,14.94-15.48,14.94-7.68,0-13.51-6.17-14.69-14.4l-11.9,3.06c2.83,13.72,12.98,22.52,26.81,22.52,15.52,0,27.67-11.82,27.67-27,0-26.13-38.42-23.91-38.42-38.53M389.15,86.83l-27.56-36.16c11.47-2.83,19.75-10.47,19.75-23.75,0-17.95-13.5-25.31-31.28-25.31h-17.58v85.23h12.86v-34.89h2.07l25.53,34.89h16.22ZM348.59,39.86h-3.25V13.69h3.25c8.38,0,19.89,1,19.89,13.09s-11.51,13.08-19.89,13.08M272.43,86.83h47.03v-12.09h-34.17v-24.48h27.7v-12.09h-27.7V13.69h34.17V1.6h-47.03v85.23ZM227.47,88.43L265.62,1.6h-13.93l-25.07,56.77L202.24,1.6h-13.94l37.11,86.83h2.07ZM166.3,86.83h12.86V1.6h-12.86v85.23ZM146.86,88.43h2.06V1.6h-12.86v56.41L81.24,0h-2.06v86.83h12.86V30.17l54.82,58.27ZM65.23,55.09V1.6h-12.86v53.49c0,11.76-7.45,21.25-19.76,21.25s-19.76-9.49-19.76-21.25V1.6H0v53.49C0,74.05,14.03,88.38,32.62,88.38s32.62-14.33,32.62-33.29M193.07,134.43c0-6.5,4.9-10.36,11.88-10.36,5.82,0,9.87,2.68,13.25,8.49l9.83-6.24c-4.71-8.66-13.04-13.63-22.86-13.63-14.15,0-24.81,9.72-24.81,22.59,0,26.27,38.12,22.8,38.12,40.94,0,8-6.64,13.72-15.18,13.72-7.69,0-13.51-6.17-14.69-14.4l-11.9,3.05c2.83,13.73,12.98,22.52,26.81,22.52,15.52,0,27.67-11.82,27.67-27,0-25.55-38.12-24.28-38.12-39.7M541.23,134.43c0-6.5,4.9-10.36,11.87-10.36,5.82,0,9.87,2.68,13.25,8.49l9.83-6.24c-4.71-8.66-13.04-13.63-22.86-13.63-14.15,0-24.81,9.72-24.81,22.59,0,26.27,38.12,22.8,38.12,40.94,0,8-6.64,13.72-15.18,13.72-7.68,0-13.51-6.17-14.69-14.4l-11.91,3.05c2.84,13.73,12.99,22.52,26.82,22.52,15.52,0,27.67-11.82,27.67-27,0-25.55-38.11-24.28-38.11-39.7M763.51,139.61c0-17.95-13.81-25.31-31.59-25.31h-17.58v85.22h12.86v-34.88h2.06l25.53,34.88h16.21l-27.55-36.16c11.48-2.82,20.06-10.46,20.06-23.75M727.2,152.55v-26.16h3.25c8.39,0,19.89,1,19.89,13.08s-11.5,13.08-19.89,13.08h-3.25ZM652.67,199.52h47.03v-12.09h-34.17v-24.48h27.7v-12.09h-27.7v-24.48h34.17v-12.09h-47.03v85.22ZM120.98,199.52h47.03v-12.09h-34.17v-24.48h27.7v-12.09h-27.7v-24.48h34.17v-12.09h-47.03v85.22ZM409.55,199.52h12.86v-85.22h-12.86v85.22ZM584.33,126.39h22.23v73.13h12.86v-73.13h22.23v-12.09h-57.32v12.09ZM238.1,126.39h22.23v73.13h12.86v-73.13h22.23v-12.09h-57.33v12.09ZM374.02,112.7l-28.7,63.19-28.7-63.19h-2.07l-18.1,86.82h13.04l10.27-48.8,24.52,50.4h2.06l24.53-50.4,10.26,48.8h13.04l-18.1-86.82h-2.06ZM78.86,167.75l-22.88-55.05h-2.07l-22.88,55.05-17.44-53.45H0l28.41,86.83h2.06l24.47-57.4,24.47,57.4h2.06l28.42-86.83h-13.59l-17.44,53.45ZM499.71,170.71l-54.82-58.01h-2.06v86.82h12.86v-56.66l54.82,58.26h2.07v-86.83h-12.86v56.41ZM781.94,114.3v60.52l5.79-5.79v-12.5h9.63v9.54l2.9,2.9,2.9-2.9v-9.54h9.63v9.54l2.9,2.9,2.9-2.9v-9.54h9.63v12.5l5.79,5.79v-60.52h-52.06ZM797.36,150.72h-9.63v-12.42h9.63v12.42ZM797.36,132.51h-9.63v-12.43h9.63v12.43ZM812.78,150.72h-9.63v-12.42h9.63v12.42ZM812.78,132.51h-9.63v-12.43h9.63v12.43ZM828.21,150.72h-9.63v-12.42h9.63v12.42ZM828.21,132.51h-9.63v-12.43h9.63v12.43Z"/>
</svg>